# xmcd CD database file
#
# Track frame offsets:
#	150
#	11620
#	26902
#	39893
#	55182
#	62648
#	72773
#	101885
#
# Disc length: 2191 seconds
#
# Revision: 0
# Processed by: cddbd v1.5.1PL2 Copyright (c) Steve Scherf et al.
# Submitted via: CDex 1.50
#
DISCID=65088d08
DTITLE=SPICY SOCKS - Good Morning, Mr. Suicide
DYEAR=2006
DGENRE=Japanese Indies
TTITLE0=WAKE UP YOU GUYS
TTITLE1=IRON HEART
TTITLE2=KICKIN' THE SCHOOL
TTITLE3=DEAR MR. SUICIDE
TTITLE4=OVER THE RAINMOW
TTITLE5=NO WAY OUT
TTITLE6=LEAVE ME KIS
TTITLE7=[DATA TRACK] -BONUS- [PV] WAKE UP YOU GUYS
EXTD=YEAR: 2006
EXTT0=
EXTT1=
EXTT2=
EXTT3=
EXTT4=
EXTT5=
EXTT6=
EXTT7=
PLAYORDER=
